<?xml version="1.0" encoding="UTF-8"?>
<svg id="Layer_1" data-name="Layer 1" xmlns="http://www.w3.org/2000/svg" width="367.649" height="366.732" viewBox="0 0 367.649 366.732">
  <path d="M196.524,13.815l-4.5,12.7-10.5.3-10.5.3-4.5-12.6c-3.1-8.5-5-12.5-6-12.5-.8.1-5.5.9-10.5,1.8l-9,1.7-.3,14.1-.3,14.2-9.1,3.1c-5.9,1.9-9.6,2.7-10.3,2.1-.6-.5-4.5-5.2-8.6-10.5-5-6.5-7.9-9.4-9.1-9.1-.9.2-5.2,2.5-9.6,5.1l-7.9,4.7,3.8,11.7c2.1,6.4,4,12.3,4.3,13.1.4,1-1.8,3.4-7.1,7.5-4.2,3.3-7.9,5.9-8.3,5.8s-5.7-3.2-12-7l-11.3-6.7-5.5,5.9c-9.6,10.5-9.6,8.9-.3,21,4.5,5.8,8.1,10.7,8.1,10.9,0,.6-8.9,14.9-9.8,15.8-.5.5-6.8-.4-14.2-2.2-7.3-1.7-13.4-2.9-13.6-2.8-1.1,1.3-7.4,18.3-7.1,19.3.4.9,9.7,7.5,21.6,15.3.3.1-.5,4.5-1.8,9.6-2.6,10.8-.7,9.7-19.3,11.7l-10.6,1.2-.8,9.6c-.5,5.3-.9,10-.9,10.6,0,.5,5.6,2.6,12.5,4.5,6.9,2,13.1,3.8,13.9,4.1,1,.3,1.5,3.1,1.8,9.9l.5,9.5-12.2,5.4c-6.6,3-12.3,5.8-12.6,6.2-.4.7,4.3,19.9,5.1,20.7.2.2,6.5-.1,14.1-.7s13.9-1,14-.8c.2.1,2.1,4.1,4.2,8.7l3.9,8.5-10.5,10-10.5,10,5.8,8.8c3.2,4.8,6.3,8.7,6.9,8.7s6.7-2.5,13.5-5.5l12.5-5.5,6.2,6.7c3.5,3.8,6.3,7.1,6.4,7.4,0,.3-2.9,6-6.5,12.7-3.6,6.8-6.5,12.6-6.5,13.1,0,.7,12,10.2,15.8,12.5.9.5,4.5-2.2,11-8.1,5.3-4.9,10.3-9.3,11-9.7,1.1-.7,15.5,6.5,16.6,8.2.2.4-.5,6.5-1.5,13.7-1.1,7.2-1.8,13.6-1.7,14.4.3,1.1,16.8,8.1,19.3,8.1.6,0,3.6-5.1,6.8-11.3,8.5-16.4,6.9-15.1,17.6-13.2,8.4,1.6,9,1.9,9.5,4.3.3,1.5,1.5,8,2.7,14.5l2.2,11.7h21.3l2.7-14.2c1.4-7.7,3.1-14.4,3.7-14.8,1.2-.8,17-3.3,17.5-2.8.2.2,3.4,5.7,7,12.3,3.7,6.6,7.1,12.4,7.5,12.9.8.8,15.9-3.5,19-5.4,1-.6.8-3.7-1-14.8-1.2-7.8-2-14.7-1.7-15.5.5-1.4,13.6-8.7,15.7-8.7.6,0,5.9,4.3,11.7,9.5,5.9,5.2,11,9.5,11.5,9.5.4,0,4.4-2.8,8.7-6.2l8-6.2-2.4-4c-1.3-2.3-4.6-8.3-7.4-13.5l-4.9-9.5,6-6.8c3.4-3.7,6.7-6.8,7.4-6.8.8,0,7.3,2.5,14.4,5.6,7.2,3.1,13.3,5.5,13.5,5.3,1.2-1.2,10.5-16.1,10.5-16.8,0-.5-4.7-5.4-10.5-11-5.8-5.5-10.5-10.4-10.5-10.8,0-.5,1.6-4.5,3.7-9.1l3.7-8.3,8.5.6c4.7.3,11.6.8,15.2,1.1l6.7.6,2.2-9.6c1.2-5.3,2-10.2,1.7-10.9s-6.2-3.7-13.2-6.7-12.9-6-13.1-6.5c-.2-.6,0-5,.4-10l.7-8.9,7.5-2.2c4.1-1.3,10.7-3.2,14.5-4.3l7.1-2.1-1.1-9.9c-.5-5.5-1.2-10.2-1.5-10.4-.3-.3-6.8-1.1-14.5-1.7-7.7-.7-14.2-1.4-14.3-1.6-.2-.1-1.5-4.4-2.8-9.6-2.3-8.8-2.3-9.4-.6-10.6.9-.7,6.4-4.5,12-8.3,11.8-8.1,11.4-6.8,5.8-19.1l-3.6-7.6-13.2,3.4c-7.3,1.9-14,3.4-14.8,3.4-1.3,0-11-14.6-11-16.5,0-.5,3.8-5.9,8.5-12.1,4.7-6.3,8.5-11.8,8.5-12.3,0-1.7-14.2-14.1-15.4-13.4-.6.3-6.1,3.9-12.3,7.9l-11.2,7.3-7.6-6.1c-4.1-3.3-7.5-6.5-7.5-7.1s1.8-6.9,4.1-14c2.2-7.1,3.9-13,3.7-13.2-.2-.1-4.4-2.3-9.4-4.8l-9.1-4.6-7.4,9.6c-4.1,5.2-7.9,10.1-8.6,11-1,1.3-2.4,1.1-11.2-1.8l-10.1-3.3v-14.3c0-7.9-.3-14.3-.7-14.3-.8,0-10.8-1.5-16.8-2.5l-3-.5-4.5,12.8ZM208.024,82.915c62.9,15.7,96.2,83.4,70.5,143.3-9.9,23.1-30.1,43.7-52.7,53.9-22.2,10-49.4,11.5-72.8,4.2-49.9-15.6-80.8-67.8-71.4-120.3,2.4-13.4,10-30.6,18.2-41.6,5.8-7.6,18.5-19.8,25.7-24.5,12.1-8,26.4-13.8,40.3-16.5,10-1.9,31.7-1.1,42.2,1.5Z" style="fill: #332828; stroke-width: 0px;"/>
  <g>
    <path d="M330.888,184.387c7.028,4.549-1.938,29.951-5.46,39.929-9.364,26.527-22.998,44.069-25.937,47.779-22.699,28.649-48.839,41.735-54.263,44.366-22.269,10.803-40.044,12.606-63.819,15.016-10.594,1.074-17.277,1.022-18.088-1.365-1.006-2.963,7.107-9.299,15.357-12.627,16.665-6.723,24.685,2.536,35.152-3.071,13.304-7.128,7.378-25.857,20.477-35.152,11.119-7.889,22.532,2.719,36.175,0,25.753-5.133,47.465-44.96,41.636-68.597-.844-3.424-2.961-9.326-.341-15.357,3.551-8.174,14.607-13.836,19.112-10.921Z" style="fill: #382214; stroke-width: 0px;"/>
    <path d="M213.172,6.714c-4.721-.969-7.471,25.947-27.46,34.071-12.512,5.085-24.122-.304-24.409,1.017-.476,2.19,30.753,20.223,47.292,7.119,14.699-11.646,9.383-41.22,4.577-42.207Z" style="fill: #382214; stroke-width: 0px;"/>
    <path d="M49.888,108.081c-4.181,3.867-9.223,10.162-17.659,59.09-2.97,17.227-3.278,21.854-.34,26.828,7.406,12.538,29.385,17.042,37.016,9.509,7.45-7.354.793-25.756-4.754-41.091-6.228-17.216-10.639-18.45-10.527-27.168.262-20.53,24.973-33.227,22.413-37.016-1.77-2.62-15.755.235-26.149,9.848Z" style="fill: #382214; stroke-width: 0px;"/>
    <path d="M47.462,256.634c-.016-.512,19.94,2.122,26.952-8.496,4.018-6.085,1.205-12.613,4.394-14.062,4.913-2.231,18.814,9.981,16.698,16.991-3.426,11.352-48.02,6.332-48.044,5.566Z" style="fill: #382214; stroke-width: 0px;"/>
    <path d="M85.491,244.121c-5.006.853-9.199,9.788-7.278,15.921.525,1.676,1.712,3.799,13.192,10.462,10.102,5.863,15.153,8.795,16.376,7.733,4.127-3.583-11.955-35.877-22.289-34.116Z" style="fill: #71341c; stroke-width: 0px;"/>
    <path d="M308.507,122.434c-1.416,2.507,11.231,8.221,12.904,20.479.948,6.943-2.177,11.949-1.823,12.063.664.214,11.516-17.563,5.19-27.211-4.256-6.49-15.073-7.451-16.271-5.33Z" style="fill: #71341c; stroke-width: 0px;"/>
    <path d="M273.763,60.683c1.174-.64,5.19,8.845,11.502,8.696,4.843-.114,7.742-5.823,8.416-5.33,1.011.739-3.867,14.794-10.66,14.587-7.391-.225-10.746-17.143-9.257-17.954Z" style="fill: #71341c; stroke-width: 0px;"/>
    <path d="M347.402,178.084c-.075,1.291-10.464-.689-14.447,5.05-4.28,6.165,2.348,16.178.842,16.972-2.085,1.098-18.517-16.094-13.665-23.788,4.853-7.697,27.382-.143,27.271,1.766Z" style="fill: #71341c; stroke-width: 0px;"/>
    <path d="M33.806,208.25c1.26.459,3.03-9.749,12.355-15.27,8.264-4.893,16.498-2.574,16.658-4.026.194-1.756-11.555-7.876-20.406-3.193-10.251,5.424-10.159,21.923-8.607,22.488Z" style="fill: #2d3633; stroke-width: 0px;"/>
    <path d="M169.144,323.313c4.473-.563,8.516,5.926,7.218,8.884-1.462,3.333-10.438,3.862-12.355.278-1.518-2.839,1.177-8.663,5.136-9.162Z" style="fill: #2d3633; stroke-width: 0px;"/>
    <path d="M200.95,10.658c-1.552,3.68,2.481,11.023,8.051,11.244,6.201.246,10.573-8.483,8.745-12.077-2.194-4.316-14.748-4.026-16.797.833Z" style="fill: #2d3633; stroke-width: 0px;"/>
    <path d="M109.703,278.673c2.599-.276,5.993-5.424,3.748-9.162-2.206-3.673-8.203-3.233-9.717-1.111-2.022,2.835,2.549,10.636,5.969,10.272Z" style="fill: #2d3633; stroke-width: 0px;"/>
  </g>
</svg>