<?xml version="1.0" encoding="UTF-8"?>
<svg id="Layer_1" data-name="Layer 1" xmlns="http://www.w3.org/2000/svg" width="367.649" height="366.732" viewBox="0 0 367.649 366.732">
  <path d="M149.582,3.298l-9,1.7-.3,14.1-.3,14.1-8.9,3.1c-4.9,1.7-9.3,3.1-9.9,3.1-.5,0-4.6-4.7-9.1-10.5-4.5-5.9-8.5-10.5-8.9-10.3-4.5,1.9-18.1,10.4-18.1,11.3,0,.6,1.8,6.2,4,12.4,2.2,6.1,4,11.8,4,12.5,0,1.3-13.8,12.6-15.3,12.6-.3,0-5.6-3.2-11.7-7-6.1-3.9-11.2-7-11.4-7s-3.6,3.6-7.6,8l-7.2,8,3.9,4.7c2.2,2.7,6.1,7.6,8.7,11l4.7,6.3-5.2,7.7c-2.9,4.3-5.3,8-5.5,8.2-.3.3-21.1-4.1-25.5-5.5-1.3-.3-2.6,1.8-5.8,9.8-2.2,5.6-3.7,10.4-3.3,10.7.5.3,5.6,3.7,11.5,7.5,12,7.7,11.2,5.6,7.8,19.6l-1.6,6.5-13.7,1.4-13.7,1.4-.5,4.1c-.3,2.2-.8,7.1-1.1,10.7l-.6,6.7,3.3,1c1.8.6,7.8,2.3,13.3,3.8s10.3,3,10.6,3.3c.4.3.9,4.6,1.3,9.6l.6,9-10.7,4.9c-6,2.7-11.8,5.5-12.9,6.2l-2.2,1.3,2.8,9.8,2.7,9.8h4.9c2.7-.1,9.2-.3,14.4-.5l9.5-.4,3.7,8.4,3.6,8.5-10.5,10-10.6,10.1,5.8,8.4c3.2,4.7,6,8.7,6.2,8.9s6.2-2.1,13.5-5.2l13.2-5.7,2.4,2.3c1.3,1.2,4.2,4.3,6.3,6.9l4,4.7-6.5,13-6.6,13,8.5,6.6,8.5,6.7,11-10.1,10.9-10,8,4.5c4.5,2.6,8.1,5,8.1,5.6,0,.5-.9,7.1-2.1,14.5-1.1,7.5-1.7,13.9-1.2,14.3.4.4,5,2.1,10.1,3.7l9.2,3,5.1-9.1c2.9-5,6.2-10.9,7.5-13.2l2.3-4,8.8,1.5c4.8.8,8.9,1.5,9.1,1.6.1.2,1.5,6.7,3.1,14.6l2.8,14.4,10.6.3,10.5.3,1.1-5.3c.6-2.9,1.9-9.5,2.9-14.7,2-10.8,1.6-10.4,14.1-11.6l6.6-.7,6.8,12.6c3.8,6.9,7.2,12.8,7.6,13,.4.3,5.1-1.1,10.4-3.1,8.6-3.1,9.6-3.8,9.2-5.7-.2-1.1-1.1-6.6-2-12.1-.8-5.5-1.7-11.2-2-12.7-.5-3.1-.2-3.3,9.1-8.4l7.1-3.8,9.4,8.4c5.2,4.6,10.4,9.3,11.6,10.3,2.1,1.9,2.2,1.8,10-4.3,4.3-3.5,7.9-6.6,8.1-7,.1-.3-2.9-6.5-6.8-13.5-3.9-7.1-6.9-13.2-6.8-13.6.2-.3,3.1-3.6,6.5-7.3l6.2-6.8,10.8,4.8c5.9,2.6,12.3,5.3,14,6l3.3,1.4,5.5-8.2c3-4.6,5.5-8.8,5.5-9.5,0-.6-1.5-2.3-3.2-3.8-1.8-1.5-6.8-6.1-11-10.1l-7.7-7.3,4-8.6,4.1-8.7,15.2.7,15.3.8,2.5-10.1,2.5-10-13.6-6-13.6-5.9.3-9.4c.2-5.2.5-9.5.7-9.7s6.6-2.2,14.4-4.6c7.7-2.3,14.3-4.4,14.6-4.7.5-.6-1.2-19-1.9-19.7-.2-.2-6.9-1-14.7-1.9-7.9-.8-14.5-1.7-14.7-1.8-.2-.2-1.3-4.4-2.6-9.4-2.6-10.7-3.8-8.7,11.6-19l10.7-7.1-1.6-3.7c-4.2-10.2-7.4-15.4-9.1-14.9-.9.3-6.6,1.7-12.7,3.1-6,1.4-11.7,2.8-12.5,3-1,.3-3.2-2.2-6.8-8l-5.3-8.4,8.5-11.6c4.8-6.3,8.6-11.8,8.6-12.2s-3.2-4-7.1-7.9l-7.1-7.2-12,7.9-12.1,7.8-4.1-2.9c-2.2-1.7-5.8-4.5-8-6.3l-3.8-3.2,4.1-13.1c2.3-7.1,4.1-13.4,4.1-14,0-1.4-17.5-9.8-18.8-9-.6.3-4.7,5.4-9.2,11.1l-8,10.5-9.6-3.5c-5.3-1.9-9.8-3.5-10-3.5s-.5-6.4-.6-14.3l-.3-14.2-9.9-1.2c-5.5-.7-10.1-1.1-10.4-.9-.2.3-2.3,6-4.7,12.8l-4.3,12.3-10.3.3-10.4.3-4.6-12.8c-2.8-7.7-5.2-12.9-6-12.9-.8-.1-5.4.6-10.4,1.5ZM209.382,83.298c17.3,4.5,32.3,13,46,26,4.3,4.1,8.3,8.3,8.7,9.2.8,1.4-2.1,3.4-18.7,12.9l-19.6,11.3-6.1-3.3c-3.3-1.9-9.7-5.5-14.1-8l-8-4.6-.3-22.7-.2-22.7h2.3c1.3,0,5.8.9,10,1.9ZM169.882,104.498l-.3,22.1-13.9,7.9c-7.6,4.4-14.4,7.9-15.1,7.7-2.9-.7-37.5-21.4-37.5-22.4,0-2.3,14-16.1,21.5-21.3,13.1-9.1,30.7-15.9,41.3-16l4.2-.1-.2,22.1ZM108.182,154.098l18.9,10.8v35l-12.2,7.2c-6.8,3.9-15.8,9.1-20,11.7l-7.7,4.5-2.5-7.7c-6.8-21.6-6.6-42.7.5-65.8,1.1-3.5,2.5-6.4,3.1-6.4s9.5,4.8,19.9,10.7ZM280.982,148.898c5.7,15.2,7.6,36.6,4.6,52.4-2,10.3-5.3,21.1-6.5,21.1-.5,0-9.5-5-20-11.1l-19-11.1v-35.4l18.3-10.6c10-5.9,18.7-10.7,19.4-10.8.6,0,2.1,2.5,3.2,5.5ZM193.082,156.098c15.9,5.1,24.2,24.8,16.9,40.3-6.6,14-21,20.7-35.4,16.5-4.6-1.3-7-2.8-11.5-7.3-6.7-6.7-9-12.4-9-22.2,0-20.1,19.3-33.7,39-27.3ZM154.782,233.198l14.8,8.8.3,22.8.2,22.8-4.2-.7c-12.8-2-29.2-8.7-41.3-16.8-6.1-4.1-24.5-21.9-24.5-23.6,0-.5.8-1.2,1.8-1.5.9-.3,9.4-5.1,18.7-10.6,9.4-5.5,17.5-10,18.2-10,.6,0,7.8,4,16,8.8ZM247.882,235.398c10,5.7,18.2,10.9,18.2,11.5,0,1.7-13.8,15.6-20.7,20.8-11.9,9.1-30.5,17.3-43.6,19.2l-4.7.7v-45.7l14.8-8.7c8.1-4.8,15.4-8.6,16.2-8.5.9.1,9.8,4.9,19.8,10.7Z" style="fill: #010101; stroke-width: 0px;"/>
  <path d="M330.888,184.387c7.028,4.549-1.938,29.951-5.46,39.929-9.364,26.527-22.998,44.069-25.937,47.779-22.699,28.649-48.839,41.735-54.263,44.366-22.269,10.803-40.044,12.606-63.819,15.016-10.594,1.074-17.277,1.022-18.088-1.365-1.006-2.963,7.107-9.299,15.357-12.627,16.665-6.723,24.685,2.536,35.152-3.071,13.304-7.128,7.378-25.857,20.477-35.152,11.119-7.889,22.532,2.719,36.175,0,25.753-5.133,47.465-44.96,41.636-68.597-.844-3.424-2.961-9.326-.341-15.357,3.551-8.174,14.607-13.836,19.112-10.921Z" style="fill: #382214; stroke-width: 0px;"/>
  <path d="M222.209,182.68c-4.721-.969-7.471,25.947-27.46,34.071-12.512,5.085-24.122-.304-24.409,1.017-.476,2.19,30.753,20.223,47.292,7.119,14.699-11.646,9.383-41.22,4.577-42.207Z" style="fill: #382214; stroke-width: 0px;"/>
  <path d="M49.888,108.081c-4.181,3.867-9.223,10.162-17.659,59.09-2.97,17.227-3.278,21.854-.34,26.828,7.406,12.538,29.385,17.042,37.016,9.509,7.45-7.354.793-25.756-4.754-41.091-6.228-17.216-10.639-18.45-10.527-27.168.262-20.53,24.973-33.227,22.413-37.016-1.77-2.62-15.755.235-26.149,9.848Z" style="fill: #382214; stroke-width: 0px;"/>
  <path d="M49.463,250.631c-.016-.512,19.94,2.122,26.952-8.496,4.018-6.085,1.205-12.613,4.394-14.062,4.913-2.231,18.814,9.981,16.698,16.991-3.426,11.352-48.02,6.332-48.044,5.566Z" style="fill: #382214; stroke-width: 0px;"/>
  <path d="M204.043,134.607c-5.006.853-9.199,9.788-7.278,15.921.525,1.676,1.712,3.799,13.192,10.462,10.102,5.863,15.153,8.795,16.376,7.733,4.127-3.583-11.955-35.877-22.289-34.116Z" style="fill: #71341c; stroke-width: 0px;"/>
  <path d="M206.436,49.602c-1.416,2.507,11.231,8.221,12.904,20.479.948,6.943-2.177,11.949-1.823,12.063.664.214,11.516-17.563,5.19-27.211-4.256-6.49-15.073-7.451-16.271-5.33Z" style="fill: #71341c; stroke-width: 0px;"/>
  <path d="M273.763,60.683c1.174-.64,5.19,8.845,11.502,8.696,4.843-.114,7.742-5.823,8.416-5.33,1.011.739-3.867,14.794-10.66,14.587-7.391-.225-10.746-17.143-9.257-17.954Z" style="fill: #71341c; stroke-width: 0px;"/>
  <path d="M347.402,178.084c-.075,1.291-10.464-.689-14.447,5.05-4.28,6.165,2.348,16.178.842,16.972-2.085,1.098-18.517-16.094-13.665-23.788,4.853-7.697,27.382-.143,27.271,1.766Z" style="fill: #71341c; stroke-width: 0px;"/>
  <path d="M181.912,62.782c1.26.459,3.03-9.749,12.355-15.27,8.264-4.893,16.498-2.574,16.658-4.026.194-1.756-11.555-7.876-20.406-3.193-10.251,5.424-10.159,21.923-8.607,22.488Z" style="fill: #2d3633; stroke-width: 0px;"/>
  <path d="M169.144,323.313c4.473-.563,8.516,5.926,7.218,8.884-1.462,3.333-10.438,3.862-12.355.278-1.518-2.839,1.177-8.663,5.136-9.162Z" style="fill: #2d3633; stroke-width: 0px;"/>
  <path d="M216.367,180.245c-1.552,3.68,2.481,11.023,8.051,11.244,6.201.246,10.573-8.483,8.745-12.077-2.194-4.316-14.748-4.026-16.797.833Z" style="fill: #2d3633; stroke-width: 0px;"/>
  <path d="M177.751,145.767c2.599-.276,5.993-5.424,3.748-9.162-2.206-3.673-8.203-3.233-9.717-1.111-2.022,2.835,2.549,10.636,5.969,10.272Z" style="fill: #2d3633; stroke-width: 0px;"/>
</svg>